<?xml version="1.0" encoding="iso-8859-1"?>
<!-- Generator: Adobe Illustrator 18.0.0, SVG Export Plug-In . SVG Version: 6.00 Build 0)  -->
<!DOCTYPE svg PUBLIC "-//W3C//DTD SVG 1.1//EN" "http://www.w3.org/Graphics/SVG/1.1/DTD/svg11.dtd">
<svg version="1.1" id="Capa_1" xmlns="http://www.w3.org/2000/svg" xmlns:xlink="http://www.w3.org/1999/xlink" x="0px" y="0px"
	 viewBox="0 0 310.797 310.797" style="enable-background:new 0 0 310.797 310.797;" xml:space="preserve">
<g>
	<path d="M208.859,27.307L208.8,11.308L189.311,0l-87.893,51.407l0.11,19.635L63.697,93.104l0.073,47.457l-18.592,11.161
		l-0.155,101.334l20.214,11.833l12.422-7.502l18.173,11.395v30.12l20.075,11.895l87.333-50.921l-0.053-21.302l45.583-26.463v-38.133
		l17.004-10.152V60.551L208.859,27.307z M187.302,33.392l6.559-3.846l0.048,23.674l-6.607,3.86V33.392z M158.816,50.059l6.558-3.836
		l0.049,23.653l-6.606,3.86V50.059z M129.173,67.389l6.558-3.844l0.049,23.68l-6.606,3.871V67.389z M101.529,87.725l-0.049,13.891
		l20.164,11.813l87.158-51.046l0.095-17.363l23.033,14.225l-107.389,63.021L83.517,98.361L101.529,87.725z M73.18,167.153
		l20.375-12.225l-0.105,7.768l-20.383,12.171L73.18,167.153z M72.604,203.263l0.018-1.205l20.374-12.225l-0.105,7.768l-20.382,12.17
		L72.604,203.263z M72.846,242.79l0.113-7.716l19.222-11.532l-0.106,7.768L72.846,242.79z M116.77,264.206l-24.647-15.455
		l14.838-8.553l0.311-101.059L86.36,127.009l-7.59,4.552v-18.703l38,22.237V264.206z M123.476,289.783l0.086-4.327l6.5-3.833
		l0.02,4.32L123.476,289.783z M153.119,272.469v-4.324l6.603-3.849l0.004,4.303L153.119,272.469z M181.606,255.828v-4.336
		l6.602-3.861l0.004,4.296L181.606,255.828z M233.77,204.207l-102,59.915V134.869l102-59.72V204.207z M251.812,154.658l-3.042,1.85
		v-7.696l3.167-1.964L251.812,154.658z M248.77,123.287v-7.695l3.151-1.969l0.139,7.721L248.77,123.287z M252.263,86.631
		l-3.493,2.086v-7.694l3.599-2.159L252.263,86.631z"/>
</g>
<g>
</g>
<g>
</g>
<g>
</g>
<g>
</g>
<g>
</g>
<g>
</g>
<g>
</g>
<g>
</g>
<g>
</g>
<g>
</g>
<g>
</g>
<g>
</g>
<g>
</g>
<g>
</g>
<g>
</g>
</svg>
